<?xml version="1.0" standalone="no"?>
<!DOCTYPE svg PUBLIC "-//W3C//DTD SVG 20010904//EN"
  "http://www.w3.org/TR/2001/REC-SVG-20010904/DTD/svg10.dtd">
<svg version="1.0" xmlns="http://www.w3.org/2000/svg"
  width="260.000000pt" height="260.000000pt" viewBox="0 0 260.000000 260.000000"
  preserveAspectRatio="xMidYMid meet">
<metadata>
Created by potrace 1.14, written by Peter Selinger 2001-2017
</metadata>
<g transform="translate(0.000000,260.000000) scale(0.100000,-0.100000)"
fill="#000000" stroke="none">
<path d="M720 2586 c-14 -8 -35 -27 -46 -43 l-22 -29 -108 1 c-74 1 -116 -3
-131 -12 -37 -22 -323 -314 -324 -332 -1 -9 -2 -52 -3 -96 -1 -78 -2 -81 -38
-116 -41 -40 -53 -74 -44 -122 17 -83 113 -127 191 -86 39 20 60 61 60 116 0
44 -5 56 -29 82 -17 17 -35 31 -41 31 -7 0 -11 29 -11 84 l-1 85 139 138 138
138 103 1 c102 0 102 0 120 -29 19 -30 71 -57 112 -57 64 0 125 63 125 130 0
93 -109 160 -190 116z m88 -88 c22 -22 14 -57 -13 -64 -31 -8 -55 10 -55 41 0
33 44 47 68 23z m-654 -601 c38 -27 -2 -95 -41 -71 -24 15 -28 48 -8 68 20 19
26 20 49 3z"/>
<path d="M1103 2580 c-45 -27 -67 -73 -59 -126 l5 -42 -221 -222 -221 -221 -1
-219 -1 -219 -37 -35 c-31 -30 -41 -34 -65 -27 -50 14 -115 -16 -142 -66 -6
-12 -11 -39 -11 -60 0 -110 125 -168 209 -98 36 31 49 68 44 119 -4 36 0 44
44 88 l47 48 1 216 0 216 207 208 208 208 39 -5 c145 -20 210 178 78 240 -46
22 -85 21 -124 -3z m107 -115 c0 -23 -17 -35 -50 -35 -35 0 -41 62 -7 77 27
13 57 -9 57 -42z m-698 -1097 c14 -23 9 -47 -12 -58 -22 -12 -59 -5 -61 11 -1
5 -2 15 -3 22 -6 36 55 57 76 25z"/>
<path d="M1493 2580 c-44 -27 -66 -73 -60 -126 l4 -44 -263 -264 -264 -264 0
-79 c0 -77 -1 -79 -31 -97 -105 -62 -49 -233 76 -230 123 3 175 162 75 229
-17 11 -30 25 -31 30 0 6 -2 32 -3 58 l-2 48 254 255 254 254 39 -6 c50 -8 94
10 122 50 21 29 26 31 90 32 l67 2 0 -53 0 -52 89 -90 90 -90 -2 -54 c-1 -40
3 -61 18 -81 75 -103 239 -52 237 73 -1 78 -64 134 -143 125 l-46 -5 -80 82
-80 82 3 57 c3 84 -4 90 -120 92 -95 1 -98 2 -119 30 -39 54 -118 71 -174 36z
m103 -95 c9 -35 -2 -55 -29 -55 -29 0 -47 18 -47 46 0 41 66 48 76 9z m564
-385 c8 -14 8 -26 0 -40 -19 -35 -80 -20 -80 20 0 40 61 55 80 20z m-1178
-467 c18 -20 16 -52 -4 -64 -24 -16 -48 -9 -60 17 -11 23 -10 29 11 45 29 23
34 24 53 2z"/>
<path d="M2080 2592 c-74 -33 -103 -105 -71 -177 23 -52 75 -80 134 -72 l40 6
165 -166 165 -165 1 -174 1 -174 -53 -55 -53 -55 -238 0 -238 0 -131 -130
-131 -130 -254 0 -254 0 -12 23 c-14 27 -60 56 -97 63 -15 3 -45 -4 -69 -16
-126 -61 -83 -240 58 -240 46 0 54 4 90 41 l39 42 269 1 268 1 133 130 133
131 234 -2 234 -1 78 79 79 79 0 212 0 212 -180 180 c-147 147 -179 183 -173
200 10 30 4 77 -13 103 -32 48 -107 75 -154 54z m80 -102 c8 -14 8 -26 0 -40
-19 -35 -80 -20 -80 20 0 40 61 55 80 20z m-1092 -1202 c34 -34 -6 -90 -48
-68 -35 19 -20 80 20 80 9 0 21 -5 28 -12z"/>
<path d="M333 2195 c-38 -16 -73 -68 -73 -108 0 -43 25 -93 57 -112 l28 -17 0
-124 0 -124 -76 -79 -77 -79 -44 5 c-134 15 -203 -154 -94 -230 23 -16 32 -31
34 -57 2 -31 24 -57 171 -205 93 -93 171 -177 174 -186 3 -10 -5 -22 -24 -33
-35 -21 -59 -64 -61 -110 -1 -39 34 -102 62 -111 11 -4 20 -14 21 -23 4 -72 1
-81 -40 -120 -68 -64 -58 -153 22 -203 39 -24 102 -21 140 7 69 50 66 170 -4
211 -26 16 -29 23 -29 69 0 44 3 54 20 59 11 3 28 18 39 33 42 60 30 140 -28
183 -23 17 -31 31 -31 54 0 27 -23 55 -172 206 -95 96 -174 182 -176 191 -1 9
6 19 18 23 11 4 32 24 47 46 21 32 25 46 20 82 l-6 44 91 92 91 93 1 142 0
141 29 18 c54 33 72 117 37 174 -35 58 -101 77 -167 48z m91 -91 c16 -42 1
-64 -44 -64 -28 0 -43 63 -17 73 25 11 55 6 61 -9z m-254 -680 c0 -28 -42 -43
-65 -24 -23 19 -18 55 8 67 28 13 57 -9 57 -43z m340 -664 c24 -45 -18 -82
-60 -53 -15 11 -19 21 -14 36 13 41 56 51 74 17z m4 -352 c15 -24 -3 -52 -37
-56 -32 -4 -49 23 -36 56 7 18 15 23 35 20 15 -2 32 -11 38 -20z"/>
<path d="M1673 2194 c-18 -9 -33 -19 -33 -23 0 -3 -7 -15 -16 -26 -12 -16 -28
-20 -77 -21 -34 -1 -69 -2 -79 -3 -17 -1 -207 -188 -209 -205 -1 -6 -2 -70 -3
-143 -1 -119 -3 -134 -21 -147 -11 -9 -23 -16 -26 -16 -4 0 -14 -16 -24 -36
-65 -137 120 -257 214 -139 51 66 35 154 -36 193 -14 9 -17 28 -19 135 l-1
125 73 73 c73 73 74 73 132 75 54 2 59 0 78 -27 44 -66 141 -77 197 -21 59 60
49 151 -22 199 -40 27 -83 29 -128 7z m97 -94 c8 -14 8 -26 0 -40 -19 -35 -80
-20 -80 20 0 40 61 55 80 20z m-442 -552 c34 -34 -6 -90 -48 -68 -35 19 -20
80 20 80 9 0 21 -5 28 -12z"/>
<path d="M1551 1893 c-49 -26 -74 -63 -75 -116 0 -53 21 -90 67 -113 59 -31
139 -10 168 43 7 13 17 23 23 24 6 1 105 2 220 3 196 1 211 0 228 -18 10 -11
18 -23 18 -28 0 -15 64 -40 102 -40 97 2 157 116 103 198 -51 78 -181 77 -217
-2 l-11 -24 -227 0 -227 0 -11 24 c-24 54 -104 78 -161 49z m82 -91 c31 -34
-5 -82 -49 -65 -34 13 -22 83 15 83 10 0 25 -8 34 -18z m691 2 c22 -21 20 -47
-4 -62 -15 -9 -26 -10 -40 -2 -11 6 -20 12 -20 15 0 2 -3 10 -6 18 -6 16 20
47 41 47 7 0 21 -7 29 -16z"/>
<path d="M2018 1370 c-45 -24 -70 -75 -65 -130 5 -45 5 -45 -74 -122 l-78 -78
-123 0 -123 0 -19 29 c-52 77 -173 73 -217 -6 -12 -23 -15 -23 -233 -23 l-221
0 -28 35 c-78 97 -227 45 -227 -80 0 -34 26 -95 40 -95 4 0 15 -8 26 -18 18
-17 19 -33 18 -321 l-2 -303 -35 -29 c-72 -60 -64 -160 16 -209 64 -39 147
-14 177 53 29 65 14 126 -40 162 l-30 20 0 313 c0 230 3 312 12 312 6 0 26 16
44 37 l32 36 214 1 213 1 32 -36 c60 -67 140 -68 203 -1 l35 37 135 -1 135 -1
93 91 93 91 50 -3 c57 -4 90 12 119 61 67 108 -59 238 -172 177z m90 -82 c34
-34 -6 -90 -48 -68 -35 19 -20 80 20 80 9 0 21 -5 28 -12z m-1334 -280 c8 -23
6 -31 -10 -43 -25 -19 -30 -19 -54 5 -20 20 -18 47 4 63 21 14 51 2 60 -25z
m684 20 c34 -34 -6 -90 -48 -68 -35 19 -20 80 20 80 9 0 21 -5 28 -12z m-684
-880 c15 -25 -3 -52 -38 -56 -20 -3 -28 2 -35 20 -13 33 4 60 36 56 14 -2 31
-11 37 -20z"/>
</g>
</svg>
